<svg xml:space="preserve" viewBox="213.84 183.60000000000002 658.8 725.76" version="1.1" xmlns:xlink="http://www.w3.org/1999/xlink" xmlns="http://www.w3.org/2000/svg" style="max-height: 500px" width="658.8" height="725.76">
<desc>Created with Fabric.js 5.2.4</desc>
<defs>
</defs>
<g id="5ed5dd71-7c85-4f7f-a6b3-71cf78b9d79e" transform="matrix(1 0 0 1 540 540)">
</g>
<g id="68885b0f-c72e-4c56-afef-107a1d84a098" transform="matrix(1 0 0 1 540 540)">
<rect height="1080" width="1080" ry="0" rx="0" y="-540" x="-540" style="stroke: none; stroke-width: 1; stroke-dasharray: none; stroke-linecap: butt; stroke-dashoffset: 0; stroke-linejoin: miter; stroke-miterlimit: 4; fill: rgb(255,255,255); fill-rule: nonzero; opacity: 1; visibility: hidden;"/>
</g>
<g transform="matrix(1.57 0 0 1.57 754.19 540)">
<g style="">
		<g id="path1" transform="matrix(3.78 0 0 3.78 -138.61 -58.39)">
<ellipse ry="31.55402" rx="35.11945" cy="0" cx="0" style="stroke: none; stroke-width: 0.27; stroke-dasharray: none; stroke-linecap: butt; stroke-dashoffset: 0; stroke-linejoin: miter; stroke-miterlimit: 4; fill: rgb(255,238,170); fill-rule: nonzero; opacity: 1;"/>
</g>
		<g transform="matrix(3.78 0 0 3.78 306.74 125.54)">
<path stroke-linecap="round" d="M 226.04802 127.9988 L 203.22929000000002 123.72029" transform="translate(-214.64, -125.86)" style="stroke: none; stroke-width: 0.26; stroke-dasharray: none; stroke-linecap: butt; stroke-dashoffset: 0; stroke-linejoin: miter; stroke-miterlimit: 4; fill: rgb(255,238,170); fill-rule: nonzero; opacity: 1;"/>
</g>
		<g transform="matrix(3.78 0 0 3.78 -141.61 5.46)">
<path stroke-linecap="round" d="M 116.23289 125.85955 L 95.660589 124.28696 L 75.062713 125.47861 L 70.201141 105.42723 L 62.702722 86.205731 L 80.270404 75.385885 L 96.234002 62.314693 L 111.953 75.679036 L 129.31746 86.822099 L 121.46466000000001 105.90155999999999 z" transform="translate(-96.01, -94.09)" style="stroke: none; stroke-width: 0.26; stroke-dasharray: none; stroke-linecap: butt; stroke-dashoffset: 0; stroke-linejoin: miter; stroke-miterlimit: 4; fill: rgb(255,238,170); fill-rule: nonzero; opacity: 1;"/>
</g>
		<g transform="matrix(3.78 0 0 3.78 -141.72 145.4)">
<path stroke-linecap="round" d="M 98.485532 108.41767 L 85.107146 111.04335 L 76.035444 120.02586000000001 L 75.671102 138.65862 L 77.563894 148.81558 L 95.11048600000001 153.80494000000002 L 113.61297 149.63668 L 116.23837 138.18825 L 116.29347 122.73544000000001 L 110.7667 114.92528000000001 z" transform="translate(-95.98, -131.11)" style="stroke: none; stroke-width: 0.25; stroke-dasharray: none; stroke-linecap: butt; stroke-dashoffset: 0; stroke-linejoin: miter; stroke-miterlimit: 4; fill: rgb(72,55,55); fill-rule: nonzero; opacity: 1;"/>
</g>
		<g transform="matrix(3.78 0 0 3.78 -139.36 16.85)">
<path stroke-linecap="round" d="M 115.73367 125.36033 L 95.56881800000001 124.28596 L 75.383228 124.84956 L 70.173738 105.33964 L 63.400025 86.316173 L 80.34524 75.332757 L 96.34444400000001 63.011997 L 112.02665000000002 75.733791 L 128.68842 87.14261499999999 L 121.43534000000001 105.98853 z" transform="translate(-96.04, -94.19)" style="stroke: none; stroke-width: 0.26; stroke-dasharray: none; stroke-linecap: butt; stroke-dashoffset: 0; stroke-linejoin: miter; stroke-miterlimit: 4; fill: rgb(255,238,170); fill-rule: nonzero; opacity: 1;"/>
</g>
		<g id="rect16" transform="matrix(-3.73 0.63 -1.61 -3.42 -126.21 -133.22)">
<rect height="11.3" width="52.72" ry="5.6508226" rx="5.6508226" y="-5.65" x="-26.36" style="stroke: none; stroke-width: 0.17; stroke-dasharray: none; stroke-linecap: butt; stroke-dashoffset: 0; stroke-linejoin: miter; stroke-miterlimit: 4; fill: rgb(0,0,84); fill-rule: nonzero; opacity: 1;"/>
</g>
		<g id="rect16-7" transform="matrix(-3.7 -0.79 -0.23 -3.77 -122.93 -164.98)">
<rect height="11.3" width="52.72" ry="5.6508226" rx="5.6508226" y="-5.65" x="-26.36" style="stroke: none; stroke-width: 0.17; stroke-dasharray: none; stroke-linecap: butt; stroke-dashoffset: 0; stroke-linejoin: miter; stroke-miterlimit: 4; fill: rgb(0,0,84); fill-rule: nonzero; opacity: 1;"/>
</g>
		<g id="rect16-5" transform="matrix(-3.73 0.64 -0.41 3.75 -182.83 -123.32)">
<rect height="11.2" width="52.7" ry="5.5995669" rx="5.5995669" y="-5.6" x="-26.35" style="stroke: none; stroke-width: 0.17; stroke-dasharray: none; stroke-linecap: butt; stroke-dashoffset: 0; stroke-linejoin: miter; stroke-miterlimit: 4; fill: rgb(0,0,86); fill-rule: nonzero; opacity: 1;"/>
</g>
		<g id="rect18" transform="matrix(3.77 0.2 -3.05 2.23 -170.03 -160.93)">
<rect height="51.04" width="53.97" ry="5.1164203" rx="5.1164203" y="-25.52" x="-26.985" style="stroke: none; stroke-width: 0.36; stroke-dasharray: none; stroke-linecap: butt; stroke-dashoffset: 0; stroke-linejoin: miter; stroke-miterlimit: 4; fill: rgb(0,0,128); fill-rule: nonzero; opacity: 1;"/>
</g>
		<g id="text21" style="" transform="matrix(3.16 0 0 4.52 -137.95 -2.55)">
		<text style="stroke: none; stroke-width: 3.55; stroke-dasharray: none; stroke-linecap: butt; stroke-dashoffset: 0; stroke-linejoin: miter; stroke-miterlimit: 4; fill: rgb(72,55,55); fill-rule: nonzero; opacity: 1; white-space: pre;" font-weight="normal" font-style="normal" font-size="41.6278" font-family="Century" xml:space="preserve"><tspan y="13.08" x="-31.99">UC</tspan></text>
</g>
		<g id="path19" transform="matrix(3.78 0 0 3.78 -169.35 -174.44)">
<ellipse ry="1.821407" rx="2.013134" cy="0" cx="0" style="stroke: none; stroke-width: 0.26; stroke-dasharray: none; stroke-linecap: butt; stroke-dashoffset: 0; stroke-linejoin: miter; stroke-miterlimit: 4; fill: rgb(170,136,0); fill-rule: nonzero; opacity: 1;"/>
</g>
		<g id="path20" transform="matrix(3.78 0 0 3.78 42.24 -84.22)">
<ellipse ry="0.38345411" rx="0.095863529" cy="0" cx="0" style="stroke: none; stroke-width: 0.26; stroke-dasharray: none; stroke-linecap: butt; stroke-dashoffset: 0; stroke-linejoin: miter; stroke-miterlimit: 4; fill: rgb(255,204,0); fill-rule: nonzero; opacity: 1;"/>
</g>
		<g id="rect20" transform="matrix(3.55 1.29 -1.43 3.5 -130.21 -161.03)">
<rect height="1.62" width="20.12" ry="0.81218356" rx="0.81218356" y="-0.81" x="-10.06" style="stroke: none; stroke-width: 0.29; stroke-dasharray: none; stroke-linecap: butt; stroke-dashoffset: 0; stroke-linejoin: miter; stroke-miterlimit: 4; fill: rgb(170,136,0); fill-rule: nonzero; opacity: 1;"/>
</g>
		<g id="rect20-2" transform="matrix(0.02 3.78 -3.78 -0.12 -97.07 -114.23)">
<rect height="1.62" width="20.12" ry="0.81218356" rx="0.81218356" y="-0.81" x="-10.06" style="stroke: none; stroke-width: 0.29; stroke-dasharray: none; stroke-linecap: butt; stroke-dashoffset: 0; stroke-linejoin: miter; stroke-miterlimit: 4; fill: rgb(170,136,0); fill-rule: nonzero; opacity: 1;"/>
</g>
		<g transform="matrix(1.56 0 0 3.78 -98.61 -75.18)">
<path stroke-linecap="round" d="M 108.08595 73.287841 L 106.14614999999999 74.271114 L 105.04057999999999 72.398324 L 103.50599999999999 70.857315 L 104.94548999999999 69.227125 L 105.93686 67.291457 L 107.93209 68.156734 L 110.07937 68.501434 L 109.87301 70.66639500000001 L 110.20872 72.81510000000002 z" transform="translate(-106.86, -70.78)" style="stroke: none; stroke-width: 0.26; stroke-dasharray: none; stroke-linecap: butt; stroke-dashoffset: 0; stroke-linejoin: miter; stroke-miterlimit: 4; fill: rgb(170,136,0); fill-rule: nonzero; opacity: 1;"/>
</g>
</g>
</g>
</svg>